<?xml version="1.0" encoding="UTF-8" standalone="no"?>
<svg
   width="192"
   height="192"
   viewBox="0 0 192 192"
   fill="none"
   version="1.1"
   xmlns="http://www.w3.org/2000/svg">
  <rect
     width="192"
     height="192"
     rx="32"
     fill="#1F3C88" />
  <g>
    <path
       d="M 34.5,60 V 132 H 47.5 V 106 H 73.5 V 93 H 47.5 V 73 H 78.5 V 60 Z"
       fill="#ffffff" />
    <!-- V -->
    <path
       d="M 83.5,60 103.5,132 h 15 l 20,-72 h -15 l -12.5,50 -12.5,-50 z"
       fill="#ffffff" />
    <!-- O -->
    <path
       d="m 147.5,59 c -16.5,0 -27,12 -27,37 0,25 10.5,37 27,37 16.5,0 27,-12 27,-37 0,-25 -10.5,-37 -27,-37 z m 0,13 c 8,0 12,8 12,24 0,16 -4,24 -12,24 -8,0 -12,-8 -12,-24 0,-16 4,-24 12,-24 z"
       fill="#35A7FF" />
  </g>
</svg>